<?xml version="1.0" encoding="UTF-8"?>
<svg xmlns="http://www.w3.org/2000/svg" xmlns:xlink="http://www.w3.org/1999/xlink" width="400px" height="300px" viewBox="0 0 400 300" version="1.1">
<g id="surface1">
<path style="fill:none;stroke-width:2;stroke-linecap:round;stroke-linejoin:round;stroke:rgb(14.509805%,38.82353%,92.156863%);stroke-opacity:1;stroke-miterlimit:4;" d="M 22 7 L 13.5 15.5 L 8.5 10.5 L 2 17 " transform="matrix(2,0,0,5,10,75)"/>
<path style="fill:none;stroke-width:2;stroke-linecap:round;stroke-linejoin:round;stroke:rgb(14.509805%,38.82353%,92.156863%);stroke-opacity:1;stroke-miterlimit:4;" d="M 16 7 L 22 7 L 22 13 " transform="matrix(2,0,0,5,10,75)"/>
<path style=" stroke:none;fill-rule:nonzero;fill:rgb(14.509805%,38.82353%,92.156863%);fill-opacity:1;" d="M 94.40625 87.523438 L 118.757812 87.523438 L 118.757812 104.574219 L 103.429688 104.574219 L 103.429688 120.863281 L 117.84375 120.863281 L 117.84375 137.910156 L 103.429688 137.910156 L 103.429688 175 L 94.40625 175 Z M 94.40625 87.523438 "/>
<path style=" stroke:none;fill-rule:nonzero;fill:rgb(14.509805%,38.82353%,92.156863%);fill-opacity:1;" d="M 137.367188 122.796875 C 135.503906 122.796875 134.085938 124.46875 133.109375 127.804688 C 132.132812 131.144531 131.644531 135.957031 131.644531 142.246094 C 131.644531 148.539062 132.132812 153.351562 133.109375 156.6875 C 134.085938 160.027344 135.503906 161.695312 137.367188 161.695312 C 139.191406 161.695312 140.589844 160.027344 141.558594 156.6875 C 142.527344 153.351562 143.011719 148.539062 143.011719 142.246094 C 143.011719 135.957031 142.527344 131.144531 141.558594 127.804688 C 140.589844 124.46875 139.191406 122.796875 137.367188 122.796875 Z M 137.367188 107.796875 C 141.878906 107.796875 145.40625 110.847656 147.941406 116.941406 C 150.480469 123.035156 151.753906 131.46875 151.753906 142.246094 C 151.753906 153.03125 150.480469 161.46875 147.941406 167.558594 C 145.40625 173.652344 141.878906 176.695312 137.367188 176.695312 C 132.832031 176.695312 129.289062 173.652344 126.734375 167.558594 C 124.179688 161.46875 122.90625 153.03125 122.90625 142.246094 C 122.90625 131.46875 124.179688 123.035156 126.734375 116.941406 C 129.289062 110.847656 132.832031 107.796875 137.367188 107.796875 Z M 137.367188 107.796875 "/>
<path style=" stroke:none;fill-rule:nonzero;fill:rgb(14.509805%,38.82353%,92.156863%);fill-opacity:1;" d="M 177.347656 127.246094 C 176.613281 126.390625 175.882812 125.757812 175.15625 125.347656 C 174.429688 124.9375 173.699219 124.730469 172.960938 124.730469 C 170.808594 124.730469 169.148438 126.460938 167.984375 129.917969 C 166.816406 133.371094 166.234375 138.320312 166.234375 144.769531 L 166.234375 175 L 157.847656 175 L 157.847656 109.382812 L 166.234375 109.382812 L 166.234375 120.15625 C 167.316406 115.859375 168.554688 112.730469 169.949219 110.757812 C 171.347656 108.785156 173.027344 107.796875 174.980469 107.796875 C 175.261719 107.796875 175.5625 107.828125 175.890625 107.886719 C 176.21875 107.945312 176.699219 108.074219 177.324219 108.265625 Z M 177.347656 127.246094 "/>
<path style=" stroke:none;fill-rule:nonzero;fill:rgb(14.509805%,38.82353%,92.156863%);fill-opacity:1;" d="M 207.71875 142.015625 L 207.71875 147.992188 L 188.105469 147.992188 C 188.308594 152.914062 189.019531 156.601562 190.238281 159.0625 C 191.457031 161.523438 193.160156 162.753906 195.34375 162.753906 C 197.109375 162.753906 198.917969 162.101562 200.769531 160.796875 C 202.621094 159.488281 204.523438 157.503906 206.480469 154.84375 L 206.480469 171.019531 C 204.496094 172.894531 202.511719 174.308594 200.527344 175.261719 C 198.542969 176.214844 196.558594 176.695312 194.574219 176.695312 C 189.824219 176.695312 186.132812 173.679688 183.5 167.648438 C 180.867188 161.613281 179.550781 153.144531 179.550781 142.246094 C 179.550781 131.546875 180.84375 123.132812 183.429688 117 C 186.011719 110.867188 189.574219 107.796875 194.105469 107.796875 C 198.230469 107.796875 201.53125 110.902344 204.007812 117.113281 C 206.480469 123.324219 207.71875 131.625 207.71875 142.015625 Z M 199.09375 135.042969 C 199.09375 131.054688 198.628906 127.84375 197.699219 125.402344 C 196.769531 122.960938 195.558594 121.742188 194.058594 121.742188 C 192.433594 121.742188 191.109375 122.886719 190.09375 125.171875 C 189.082031 127.453125 188.449219 130.742188 188.199219 135.042969 Z M 199.09375 135.042969 "/>
<path style=" stroke:none;fill-rule:nonzero;fill:rgb(14.509805%,38.82353%,92.156863%);fill-opacity:1;" d="M 234.578125 111.429688 L 234.578125 127.367188 C 232.78125 125.492188 231.046875 124.085938 229.375 123.148438 C 227.703125 122.210938 226.125 121.742188 224.640625 121.742188 C 223.046875 121.742188 221.867188 122.238281 221.089844 123.238281 C 220.316406 124.234375 219.929688 125.765625 219.929688 127.835938 C 219.929688 129.515625 220.222656 130.808594 220.808594 131.703125 C 221.394531 132.601562 222.445312 133.265625 223.960938 133.691406 L 225.441406 134.21875 C 229.734375 135.585938 232.625 137.835938 234.109375 140.960938 C 235.59375 144.085938 236.335938 148.984375 236.335938 155.660156 C 236.335938 162.65625 235.304688 167.914062 233.242188 171.429688 C 231.179688 174.941406 228.101562 176.695312 224.007812 176.695312 C 222.273438 176.695312 220.480469 176.355469 218.628906 175.667969 C 216.777344 174.992188 214.878906 173.964844 212.925781 172.597656 L 212.925781 156.660156 C 214.59375 158.695312 216.308594 160.21875 218.066406 161.234375 C 219.824219 162.246094 221.609375 162.753906 223.421875 162.753906 C 225.0625 162.753906 226.296875 162.1875 227.125 161.054688 C 227.953125 159.925781 228.367188 158.246094 228.367188 156.019531 C 228.367188 154.144531 228.082031 152.75 227.511719 151.832031 C 226.941406 150.914062 225.804688 150.199219 224.101562 149.6875 L 222.628906 149.21875 C 218.894531 148.046875 216.277344 145.882812 214.777344 142.714844 C 213.277344 139.550781 212.527344 134.746094 212.527344 128.304688 C 212.527344 121.351562 213.476562 116.195312 215.382812 112.835938 C 217.289062 109.476562 220.210938 107.796875 224.148438 107.796875 C 225.695312 107.796875 227.320312 108.089844 229.023438 108.675781 C 230.726562 109.261719 232.578125 110.179688 234.578125 111.429688 Z M 234.578125 111.429688 "/>
<path style=" stroke:none;fill-rule:nonzero;fill:rgb(14.509805%,38.82353%,92.156863%);fill-opacity:1;" d="M 242.640625 109.382812 L 251.027344 109.382812 L 251.027344 175 L 242.640625 175 Z M 242.640625 83.832031 L 251.027344 83.832031 L 251.027344 100.945312 L 242.640625 100.945312 Z M 242.640625 83.832031 "/>
<path style=" stroke:none;fill-rule:nonzero;fill:rgb(14.509805%,38.82353%,92.156863%);fill-opacity:1;" d="M 276.953125 163.867188 C 275.796875 167.699219 274.523438 170.511719 273.132812 172.304688 C 271.738281 174.101562 270.132812 175 268.304688 175 C 265.101562 175 262.453125 171.847656 260.355469 165.542969 C 258.261719 159.234375 257.21875 151.195312 257.21875 141.429688 C 257.21875 131.621094 258.261719 123.585938 260.355469 117.320312 C 262.453125 111.050781 265.101562 107.917969 268.304688 107.917969 C 270.132812 107.917969 271.738281 108.816406 273.132812 110.609375 C 274.523438 112.40625 275.796875 115.238281 276.953125 119.105469 L 276.953125 109.382812 L 285.390625 109.382812 L 285.390625 168.378906 C 285.390625 178.921875 284.058594 186.980469 281.394531 192.542969 C 278.726562 198.113281 274.863281 200.898438 269.804688 200.898438 C 268.164062 200.898438 266.574219 200.585938 265.042969 199.960938 C 263.515625 199.335938 261.976562 198.378906 260.429688 197.089844 L 260.429688 180.742188 C 261.898438 182.851562 263.335938 184.421875 264.742188 185.453125 C 266.148438 186.488281 267.5625 187.007812 268.980469 187.007812 C 271.730469 187.007812 273.746094 185.503906 275.03125 182.5 C 276.3125 179.492188 276.953125 174.789062 276.953125 168.378906 Z M 271.417969 123.027344 C 269.683594 123.027344 268.335938 124.632812 267.367188 127.835938 C 266.398438 131.039062 265.914062 135.570312 265.914062 141.429688 C 265.914062 147.445312 266.382812 152.007812 267.320312 155.113281 C 268.257812 158.21875 269.625 159.769531 271.417969 159.769531 C 273.167969 159.769531 274.527344 158.167969 275.496094 154.960938 C 276.46875 151.757812 276.953125 147.246094 276.953125 141.429688 C 276.953125 135.570312 276.46875 131.039062 275.496094 127.835938 C 274.527344 124.632812 273.167969 123.027344 271.417969 123.027344 Z M 271.417969 123.027344 "/>
<path style=" stroke:none;fill-rule:nonzero;fill:rgb(14.509805%,38.82353%,92.156863%);fill-opacity:1;" d="M 319.839844 135.042969 L 319.839844 175 L 311.402344 175 L 311.402344 144.53125 C 311.402344 138.792969 311.351562 134.847656 311.25 132.699219 C 311.148438 130.554688 310.972656 128.972656 310.722656 127.953125 C 310.394531 126.585938 309.949219 125.519531 309.386719 124.761719 C 308.824219 124 308.183594 123.617188 307.464844 123.617188 C 305.714844 123.617188 304.339844 125.304688 303.339844 128.683594 C 302.339844 132.0625 301.839844 136.738281 301.839844 142.714844 L 301.839844 175 L 293.449219 175 L 293.449219 83.832031 L 301.839844 83.832031 L 301.839844 118.988281 C 303.105469 115.160156 304.449219 112.335938 305.871094 110.519531 C 307.292969 108.707031 308.863281 107.796875 310.582031 107.796875 C 313.613281 107.796875 315.914062 110.121094 317.484375 114.769531 C 319.054688 119.417969 319.839844 126.175781 319.839844 135.042969 Z M 319.839844 135.042969 "/>
<path style=" stroke:none;fill-rule:nonzero;fill:rgb(14.509805%,38.82353%,92.156863%);fill-opacity:1;" d="M 336.785156 90.742188 L 336.785156 109.382812 L 345.433594 109.382812 L 345.433594 124.375 L 336.785156 124.375 L 336.785156 152.210938 C 336.785156 155.257812 337.023438 157.316406 337.507812 158.394531 C 337.996094 159.464844 338.957031 160 340.394531 160 L 344.707031 160 L 344.707031 175 L 337.507812 175 C 334.199219 175 331.851562 173.273438 330.46875 169.8125 C 329.085938 166.359375 328.394531 160.488281 328.394531 152.210938 L 328.394531 124.375 L 324.222656 124.375 L 324.222656 109.382812 L 328.394531 109.382812 L 328.394531 90.742188 Z M 336.785156 90.742188 "/>
</g>
</svg>
